# This file uses centimeters as units for non-parametric coordinates.

mtllib barrel.mtl
g default
v 1.727867 -0.001375 2.527185
v 1.862123 -0.001375 2.562901
v 1.897839 -0.001375 2.428645
v 1.763583 -0.001375 2.392929
v 1.655687 0.027774 2.569030
v 1.903968 0.027774 2.635081
v 1.970019 0.027774 2.386800
v 1.721738 0.027774 2.320749
v 1.645209 0.231821 2.575104
v 1.910042 0.231821 2.645559
v 1.980497 0.231821 2.380725
v 1.715663 0.231821 2.310271
v 1.655687 0.435868 2.569030
v 1.903968 0.435868 2.635081
v 1.970019 0.435868 2.386800
v 1.721738 0.435868 2.320749
v 1.727867 0.465018 2.527185
v 1.862123 0.465018 2.562901
v 1.897839 0.465018 2.428645
v 1.763583 0.465018 2.392929
v 1.812853 -0.001375 2.477915
v 1.812853 0.465018 2.477915
v 1.851225 0.465018 2.455669
v 1.790607 0.465018 2.439543
v 1.787959 -0.001375 2.571489
v 1.687120 -0.001375 2.550807
v 1.885745 -0.001375 2.603648
v 1.768819 0.027774 2.643436
v 1.906427 -0.001375 2.502809
v 1.938586 -0.001375 2.405023
v 1.978374 0.027774 2.521949
v 1.837747 -0.001375 2.384340
v 1.739961 -0.001375 2.352182
v 1.856887 0.027774 2.312394
v 1.719279 -0.001375 2.453021
v 1.647332 0.027774 2.433881
v 1.645209 0.115223 2.575104
v 1.910042 0.115223 2.645559
v 1.765884 0.231821 2.654470
v 1.980497 0.115223 2.380725
v 1.989408 0.231821 2.524884
v 1.715663 0.115223 2.310271
v 1.859822 0.231821 2.301359
v 1.636297 0.231821 2.430945
v 1.645209 0.348420 2.575104
v 1.910042 0.348420 2.645559
v 1.768819 0.435868 2.643436
v 1.980497 0.348420 2.380725
v 1.978374 0.435868 2.521949
v 1.715663 0.348420 2.310271
v 1.856887 0.435868 2.312394
v 1.647332 0.435868 2.433881
v 1.687120 0.465018 2.550807
v 1.885745 0.465018 2.603648
v 1.787959 0.465018 2.571489
v 1.938586 0.465018 2.405023
v 1.906427 0.465018 2.502809
v 1.739961 0.465018 2.352182
v 1.837747 0.465018 2.384340
v 1.719279 0.465018 2.453021
v 1.835099 -0.001375 2.516287
v 1.774481 -0.001375 2.500160
v 1.851225 -0.001375 2.455669
v 1.790607 -0.001375 2.439543
v 1.774481 0.465018 2.500160
v 1.835099 0.465018 2.516287
v 1.777626 -0.001375 2.610331
v 1.945269 -0.001375 2.513142
v 1.848080 -0.001375 2.345498
v 1.680436 -0.001375 2.442688
v 1.765884 0.115223 2.654470
v 1.989408 0.115223 2.524884
v 1.859822 0.115223 2.301359
v 1.636297 0.115223 2.430945
v 1.765884 0.348420 2.654470
v 1.989408 0.348420 2.524884
v 1.859822 0.348420 2.301359
v 1.636297 0.348420 2.430945
v 1.777626 0.465018 2.610331
v 1.945269 0.465018 2.513142
v 1.848080 0.465018 2.345498
v 1.680436 0.465018 2.442688
v 1.797196 -0.001375 2.536767
v 1.871705 -0.001375 2.493571
v 1.828509 -0.001375 2.419063
v 1.754001 -0.001375 2.462258
v 1.797196 0.465018 2.536767
v 1.871705 0.465018 2.493571
v 1.828509 0.465018 2.419063
v 1.754001 0.465018 2.462258
vt 0.546657 0.580520
vt 0.477383 0.610636
vt 0.448628 0.581881
vt 0.546657 0.532866
vt 0.546657 0.635035
vt 0.503089 0.636342
vt 0.447266 0.679910
vt 0.399613 0.679910
vt 0.424121 0.557374
vt 0.546657 0.496106
vt 0.615931 0.610636
vt 0.644686 0.581881
vt 0.590226 0.636342
vt 0.546657 0.679910
vt 0.501782 0.679910
vt 0.477383 0.749184
vt 0.448628 0.777939
vt 0.362853 0.679910
vt 0.669194 0.557374
vt 0.646048 0.679910
vt 0.693701 0.679910
vt 0.591533 0.679910
vt 0.546657 0.724786
vt 0.503089 0.723479
vt 0.546657 0.779301
vt 0.546657 0.826954
vt 0.424121 0.802446
vt 0.730462 0.679910
vt 0.615931 0.749184
vt 0.644686 0.777939
vt 0.590226 0.723479
vt 0.546657 0.863715
vt 0.669194 0.802446
vt 0.132698 0.492114
vt 0.010161 0.492114
vt 0.001992 0.394085
vt 0.132698 0.394085
vt 0.001992 0.263380
vt 0.132698 0.263380
vt 0.255234 0.492114
vt 0.263403 0.394085
vt 0.001992 0.132674
vt 0.132698 0.132674
vt 0.263403 0.263380
vt 0.010161 0.034645
vt 0.132698 0.034645
vt 0.263403 0.132674
vt 0.034668 0.001969
vt 0.132698 0.001969
vt 0.255234 0.034645
vt 0.230727 0.001969
vt 0.279311 0.001969
vt 0.401848 0.001969
vt 0.401848 0.099998
vt 0.271142 0.099998
vt 0.524384 0.001969
vt 0.532553 0.099998
vt 0.401848 0.230703
vt 0.271142 0.230703
vt 0.532553 0.230703
vt 0.401848 0.361409
vt 0.271142 0.361409
vt 0.532553 0.361409
vt 0.401848 0.459438
vt 0.279311 0.459438
vt 0.524384 0.459438
vt 0.401848 0.492114
vt 0.303819 0.492114
vt 0.499877 0.492114
vt 0.548267 0.001969
vt 0.670803 0.001969
vt 0.670803 0.099998
vt 0.540098 0.099998
vt 0.793340 0.001969
vt 0.801509 0.099998
vt 0.670803 0.230703
vt 0.540098 0.230703
vt 0.801509 0.230703
vt 0.670803 0.361409
vt 0.540098 0.361409
vt 0.801509 0.361409
vt 0.670803 0.459438
vt 0.548267 0.459438
vt 0.793340 0.459438
vt 0.670803 0.492114
vt 0.572774 0.492114
vt 0.768832 0.492114
vt 0.744766 0.496106
vt 0.867302 0.496106
vt 0.867302 0.594135
vt 0.736597 0.594135
vt 0.989839 0.496106
vt 0.998008 0.594135
vt 0.867302 0.724840
vt 0.736597 0.724840
vt 0.998008 0.724840
vt 0.867302 0.855546
vt 0.736597 0.855546
vt 0.998008 0.855546
vt 0.867302 0.953575
vt 0.744766 0.953575
vt 0.989839 0.953575
vt 0.867302 0.986251
vt 0.769273 0.986251
vt 0.965332 0.986251
vt 0.111644 0.741178
vt 0.062630 0.643149
vt 0.110283 0.643149
vt 0.140400 0.712423
vt 0.111644 0.545120
vt 0.140400 0.573875
vt 0.164798 0.643149
vt 0.166105 0.686718
vt 0.209674 0.790193
vt 0.209674 0.742540
vt 0.209674 0.496106
vt 0.209674 0.543759
vt 0.166105 0.599581
vt 0.209674 0.643149
vt 0.209674 0.688025
vt 0.307703 0.741178
vt 0.278947 0.712423
vt 0.307703 0.545120
vt 0.278947 0.573875
vt 0.209674 0.598274
vt 0.254549 0.643149
vt 0.253242 0.686718
vt 0.356717 0.643149
vt 0.309064 0.643149
vt 0.253242 0.599581
vn 0.000000 -1.000000 -0.000000
vn 0.000000 -1.000000 -0.000000
vn -0.118217 -0.888008 0.444372
vn -0.400153 -0.886601 0.231984
vn 0.000000 -1.000000 -0.000000
vn 0.231984 -0.886601 0.400153
vn 0.475146 -0.320181 0.819586
vn -0.243854 -0.316725 0.916635
vn -0.819586 -0.320181 0.475146
vn 0.000000 -1.000000 0.000000
vn 0.444372 -0.888008 0.118217
vn 0.000000 -1.000000 -0.000000
vn 0.400153 -0.886601 -0.231984
vn 0.819586 -0.320181 -0.475146
vn 0.916635 -0.316725 0.243854
vn 0.000000 -1.000000 -0.000000
vn 0.118217 -0.888008 -0.444372
vn 0.000000 -1.000000 -0.000000
vn -0.231985 -0.886601 -0.400153
vn -0.475145 -0.320181 -0.819586
vn 0.243854 -0.316725 -0.916635
vn 0.000000 -1.000000 0.000000
vn -0.444372 -0.888008 -0.118217
vn -0.916635 -0.316725 -0.243854
vn -0.256714 -0.054110 0.964972
vn -0.863724 -0.056977 0.500734
vn 0.500734 -0.056977 0.863724
vn 0.501549 -0.000000 0.865129
vn -0.257090 0.000000 0.966387
vn -0.865129 0.000000 0.501549
vn 0.964972 -0.054110 0.256714
vn 0.863724 -0.056977 -0.500734
vn 0.865129 0.000000 -0.501549
vn 0.966387 0.000000 0.257090
vn 0.256713 -0.054110 -0.964972
vn -0.500734 -0.056977 -0.863724
vn -0.501549 0.000000 -0.865129
vn 0.257090 0.000000 -0.966387
vn -0.964972 -0.054110 -0.256713
vn -0.966388 0.000000 -0.257090
vn -0.256714 0.054110 0.964972
vn -0.863724 0.056977 0.500734
vn 0.500734 0.056977 0.863724
vn 0.475146 0.320181 0.819586
vn -0.243854 0.316725 0.916635
vn -0.819586 0.320181 0.475146
vn 0.964972 0.054110 0.256714
vn 0.863724 0.056977 -0.500734
vn 0.819586 0.320181 -0.475146
vn 0.916635 0.316725 0.243854
vn 0.256713 0.054110 -0.964972
vn -0.500734 0.056977 -0.863724
vn -0.475145 0.320181 -0.819586
vn 0.243854 0.316725 -0.916635
vn -0.964972 0.054110 -0.256713
vn -0.916635 0.316725 -0.243854
vn -0.118217 0.888008 0.444372
vn -0.400153 0.886601 0.231984
vn 0.231984 0.886601 0.400153
vn 0.000000 1.000000 0.000000
vn 0.000000 1.000000 0.000000
vn 0.000000 1.000000 0.000000
vn 0.444372 0.888008 0.118217
vn 0.400153 0.886601 -0.231985
vn 0.000000 1.000000 -0.000000
vn 0.000000 1.000000 0.000000
vn 0.118217 0.888008 -0.444372
vn -0.231985 0.886601 -0.400153
vn 0.000000 1.000000 0.000000
vn 0.000000 1.000000 -0.000000
vn -0.444372 0.888008 -0.118217
vn 0.000000 1.000000 0.000000
vn 0.000000 -1.000000 -0.000000
vn 0.000000 -1.000000 -0.000000
vn 0.000000 -1.000000 -0.000000
vn 0.000000 -1.000000 0.000000
vn 0.000000 -1.000000 0.000000
vn 0.000000 -1.000000 -0.000000
vn 0.000000 -1.000000 0.000000
vn 0.000000 -1.000000 0.000000
vn 0.000000 -1.000000 0.000000
vn 0.000000 1.000000 0.000000
vn 0.000000 1.000000 0.000000
vn 0.000000 1.000000 -0.000000
vn 0.000000 1.000000 0.000000
vn 0.000000 1.000000 0.000000
vn 0.000000 1.000000 0.000000
vn 0.000000 1.000000 0.000000
vn 0.000000 1.000000 0.000000
vn 0.000000 1.000000 0.000000
s 1
g pCylinder8 group16
usemtl lambert4SG
f 1/1/1 25/2/2 67/3/3 26/4/4
f 25/2/2 2/7/5 27/8/6 67/3/3
f 67/3/3 27/8/6 6/18/7 28/9/8
f 26/4/4 67/3/3 28/9/8 5/10/9
f 2/7/5 29/16/10 68/17/11 27/8/6
f 29/16/10 3/25/12 30/26/13 68/17/11
f 68/17/11 30/26/13 7/32/14 31/27/15
f 27/8/6 68/17/11 31/27/15 6/18/7
f 3/25/12 32/29/16 69/30/17 30/26/13
f 32/29/16 4/20/18 33/21/19 69/30/17
f 69/30/17 33/21/19 8/28/20 34/33/21
f 30/26/13 69/30/17 34/33/21 7/32/14
f 4/20/18 35/11/22 70/12/23 33/21/19
f 35/11/22 1/1/1 26/4/4 70/12/23
f 70/12/23 26/4/4 5/10/9 36/19/24
f 33/21/19 70/12/23 36/19/24 8/28/20
f 5/34/9 28/35/8 71/36/25 37/37/26
f 28/52/8 6/53/7 38/54/27 71/55/25
f 71/55/25 38/54/27 10/58/28 39/59/29
f 37/37/26 71/36/25 39/38/29 9/39/30
f 6/53/7 31/56/15 72/57/31 38/54/27
f 31/70/15 7/71/14 40/72/32 72/73/31
f 72/73/31 40/72/32 11/76/33 41/77/34
f 38/54/27 72/57/31 41/60/34 10/58/28
f 7/71/14 34/74/21 73/75/35 40/72/32
f 34/88/21 8/89/20 42/90/36 73/91/35
f 73/91/35 42/90/36 12/94/37 43/95/38
f 40/72/32 73/75/35 43/78/38 11/76/33
f 8/89/20 36/92/24 74/93/39 42/90/36
f 36/40/24 5/34/9 37/37/26 74/41/39
f 74/41/39 37/37/26 9/39/30 44/44/40
f 42/90/36 74/93/39 44/96/40 12/94/37
f 9/39/30 39/38/29 75/42/41 45/43/42
f 39/59/29 10/58/28 46/61/43 75/62/41
f 75/62/41 46/61/43 14/64/44 47/65/45
f 45/43/42 75/42/41 47/45/45 13/46/46
f 10/58/28 41/60/34 76/63/47 46/61/43
f 41/77/34 11/76/33 48/79/48 76/80/47
f 76/80/47 48/79/48 15/82/49 49/83/50
f 46/61/43 76/63/47 49/66/50 14/64/44
f 11/76/33 43/78/38 77/81/51 48/79/48
f 43/95/38 12/94/37 50/97/52 77/98/51
f 77/98/51 50/97/52 16/100/53 51/101/54
f 48/79/48 77/81/51 51/84/54 15/82/49
f 12/94/37 44/96/40 78/99/55 50/97/52
f 44/44/40 9/39/30 45/43/42 78/47/55
f 78/47/55 45/43/42 13/46/46 52/50/56
f 50/97/52 78/99/55 52/102/56 16/100/53
f 13/46/46 47/45/45 79/48/57 53/49/58
f 47/65/45 14/64/44 54/67/59 79/68/57
f 79/106/57 54/107/59 18/108/60 55/109/61
f 53/114/58 79/106/57 55/109/61 17/115/62
f 14/64/44 49/66/50 80/69/63 54/67/59
f 49/83/50 15/82/49 56/85/64 80/86/63
f 80/110/63 56/116/64 19/117/65 57/111/66
f 54/107/59 80/110/63 57/111/66 18/108/60
f 15/82/49 51/84/54 81/87/67 56/85/64
f 51/101/54 16/100/53 58/103/68 81/104/67
f 81/123/67 58/128/68 20/129/69 59/124/70
f 56/116/64 81/123/67 59/124/70 19/117/65
f 16/100/53 52/102/56 82/105/71 58/103/68
f 52/50/56 13/46/46 53/49/58 82/51/71
f 82/121/71 53/114/58 17/115/62 60/122/72
f 58/128/68 82/121/71 60/122/72 20/129/69
f 2/7/5 25/2/2 83/6/73 61/15/74
f 1/1/1 62/5/75 83/6/73 25/2/2
f 21/14/76 61/15/74 83/6/73 62/5/75
f 3/25/12 29/16/10 84/24/77 63/23/78
f 2/7/5 61/15/74 84/24/77 29/16/10
f 21/14/76 63/23/78 84/24/77 61/15/74
f 4/20/18 32/29/16 85/31/79 64/22/80
f 3/25/12 63/23/78 85/31/79 32/29/16
f 21/14/76 64/22/80 85/31/79 63/23/78
f 1/1/1 35/11/22 86/13/81 62/5/75
f 4/20/18 64/22/80 86/13/81 35/11/22
f 21/14/76 62/5/75 86/13/81 64/22/80
f 17/115/62 55/109/61 87/113/82 65/120/83
f 18/108/60 66/112/84 87/113/82 55/109/61
f 22/119/85 65/120/83 87/113/82 66/112/84
f 18/108/60 57/111/66 88/118/86 66/112/84
f 19/117/65 23/125/87 88/118/86 57/111/66
f 22/119/85 66/112/84 88/118/86 23/125/87
f 19/117/65 59/124/70 89/130/88 23/125/87
f 20/129/69 24/126/89 89/130/88 59/124/70
f 22/119/85 23/125/87 89/130/88 24/126/89
f 20/129/69 60/122/72 90/127/90 24/126/89
f 17/115/62 65/120/83 90/127/90 60/122/72
f 22/119/85 24/126/89 90/127/90 65/120/83
